<svg width="21" height="14" viewBox="0 0 21 14" fill="none" xmlns="http://www.w3.org/2000/svg">
<path d="M20.1188 0.391504C19.9826 0.26745 19.8205 0.168985 19.642 0.10179C19.4635 0.034595 19.272 0 19.0786 0C18.8851 0 18.6936 0.034595 18.5151 0.10179C18.3366 0.168985 18.1745 0.26745 18.0383 0.391504L7.12326 10.2652L2.53746 6.10925C2.39604 5.98584 2.22911 5.88881 2.04618 5.82368C1.86325 5.75856 1.66792 5.72662 1.47133 5.72969C1.27474 5.73277 1.08075 5.77079 0.900422 5.84159C0.720099 5.91239 0.556978 6.01458 0.420373 6.14234C0.283768 6.27009 0.176355 6.42089 0.104266 6.58615C0.0321767 6.7514 -0.00317716 6.92786 0.000224042 7.10545C0.00362525 7.28305 0.0457147 7.4583 0.124089 7.6212C0.202462 7.7841 0.315586 7.93146 0.457001 8.05487L6.08303 13.1373C6.21923 13.2614 6.38127 13.3598 6.55981 13.427C6.73835 13.4942 6.92984 13.5288 7.12326 13.5288C7.31667 13.5288 7.50817 13.4942 7.6867 13.427C7.86524 13.3598 8.02728 13.2614 8.16348 13.1373L20.1188 2.33713C20.2675 2.21318 20.3862 2.06276 20.4674 1.89533C20.5485 1.7279 20.5905 1.5471 20.5905 1.36431C20.5905 1.18153 20.5485 1.00073 20.4674 0.833297C20.3862 0.665869 20.2675 0.515445 20.1188 0.391504Z" fill="white"/>
</svg>
